<svg width="60" height="60" viewBox="0 0 60 60" fill="none" xmlns="http://www.w3.org/2000/svg">
<g clip-path="url(#clip0)">
<g filter="url(#filter0_d)">
<path d="M16.2183 9.79805C19.8739 5.93151 24.8303 3.75645 30.0001 3.75C35.17 3.75645 40.1263 5.93151 43.782 9.79805C47.4376 13.6646 49.494 18.9069 49.5001 24.375C49.5062 28.8415 48.1268 33.1868 45.5735 36.7444L45.5717 36.75C45.5717 36.75 45.0381 37.4888 44.9601 37.5881L30.0001 56.25L15.0472 37.5975C14.9603 37.4906 14.4285 36.75 14.4285 36.75C11.874 33.1908 10.494 28.8435 10.5001 24.375C10.5062 18.9069 12.5627 13.6646 16.2183 9.79805Z" fill="#F3F3F3"/>
</g>
<g filter="url(#filter1_d)">
<path d="M30 3.75C24.8302 3.75645 19.8738 5.93151 16.2182 9.79805C12.5625 13.6646 10.5061 18.9069 10.5 24.375C10.4938 28.8435 11.8738 33.1908 14.4284 36.75C14.4284 36.75 14.9602 37.4906 15.0471 37.5975L30 56.25L44.96 37.5881C45.038 37.4888 45.5716 36.75 45.5716 36.75L45.5734 36.7444C48.1267 33.1868 49.506 28.8415 49.5 24.375C49.4939 18.9069 47.4375 13.6646 43.7818 9.79805C40.1262 5.93151 35.1698 3.75645 30 3.75ZM36.3818 33.75L30 29.4544L23.6182 33.75L24.6818 26.1112L19.3636 20.9494L26.8091 19.9988L30 13.125L33.3895 20.0006L40.6364 20.9494L35.3182 26.1112L36.3818 33.75Z" fill="#408647"/>
</g>
</g>
<defs>
<filter id="filter0_d" x="2.50012" y="-1.25" width="55" height="68.5" filterUnits="userSpaceOnUse" color-interpolation-filters="sRGB">
<feFlood flood-opacity="0" result="BackgroundImageFix"/>
<feColorMatrix in="SourceAlpha" type="matrix" values="0 0 0 0 0 0 0 0 0 0 0 0 0 0 0 0 0 0 127 0" result="hardAlpha"/>
<feOffset dy="3"/>
<feGaussianBlur stdDeviation="4"/>
<feComposite in2="hardAlpha" operator="out"/>
<feColorMatrix type="matrix" values="0 0 0 0 0.211765 0 0 0 0 0.235294 0 0 0 0 0.192157 0 0 0 0.08 0"/>
<feBlend mode="normal" in2="BackgroundImageFix" result="effect1_dropShadow"/>
<feBlend mode="normal" in="SourceGraphic" in2="effect1_dropShadow" result="shape"/>
</filter>
<filter id="filter1_d" x="2.5" y="-1.25" width="55" height="68.5" filterUnits="userSpaceOnUse" color-interpolation-filters="sRGB">
<feFlood flood-opacity="0" result="BackgroundImageFix"/>
<feColorMatrix in="SourceAlpha" type="matrix" values="0 0 0 0 0 0 0 0 0 0 0 0 0 0 0 0 0 0 127 0" result="hardAlpha"/>
<feOffset dy="3"/>
<feGaussianBlur stdDeviation="4"/>
<feComposite in2="hardAlpha" operator="out"/>
<feColorMatrix type="matrix" values="0 0 0 0 0.211765 0 0 0 0 0.235294 0 0 0 0 0.192157 0 0 0 0.08 0"/>
<feBlend mode="normal" in2="BackgroundImageFix" result="effect1_dropShadow"/>
<feBlend mode="normal" in="SourceGraphic" in2="effect1_dropShadow" result="shape"/>
</filter>
<clipPath id="clip0">
<rect width="60" height="60" fill="white"/>
</clipPath>
</defs>
</svg>
