<svg width="260" height="220" viewBox="0 0 260 220" fill="none" xmlns="http://www.w3.org/2000/svg">
<path d="M195.276 85.0785C217.515 96.0268 244.416 86.8851 255.37 64.6617C262.544 50.1116 261.097 33.5558 252.995 20.7859C252.71 20.3427 252.42 19.907 252.124 19.4751C252.033 19.3474 251.954 19.2197 251.864 19.092C248.569 14.4122 244.416 10.4085 239.644 7.2911C239.576 7.24979 239.505 7.20096 239.437 7.15589C238.983 6.86294 238.52 6.58124 238.058 6.30707C237.848 6.18312 237.637 6.05542 237.427 5.93148C237.066 5.72491 236.698 5.52961 236.33 5.33055C236.007 5.15402 235.68 4.98125 235.349 4.81224C235.048 4.65825 234.744 4.51553 234.44 4.36905C234.049 4.1775 233.658 4.00097 233.267 3.82445C232.982 3.69675 232.692 3.57281 232.399 3.44886C232.008 3.28736 231.614 3.12962 231.219 2.97563C230.903 2.85544 230.588 2.73525 230.268 2.61882C229.911 2.49112 229.554 2.37094 229.197 2.25451C228.825 2.13056 228.45 2.00662 228.074 1.8977C227.781 1.80756 227.488 1.72493 227.195 1.6423C226.74 1.5146 226.285 1.39442 225.827 1.28174C225.62 1.22916 225.41 1.18033 225.199 1.13526C224.651 1.01132 224.098 0.887376 223.538 0.782212C223.422 0.755921 223.309 0.737143 223.193 0.718364C222.531 0.601932 221.874 0.49301 221.208 0.399114C221.193 0.399114 221.175 0.399116 221.16 0.39536C218.214 0.000995801 215.181 -0.10417 212.1 0.106158C209.056 0.31273 206.106 0.819767 203.273 1.5822C203.19 1.6085 203.111 1.62352 203.036 1.64606C202.559 1.77751 202.089 1.92775 201.619 2.07423C201.337 2.16061 201.059 2.24324 200.781 2.33713C200.575 2.4085 200.368 2.48737 200.165 2.55497C189.508 6.31834 180.245 14.0779 174.856 25.015C163.899 47.2383 173.041 74.1302 195.276 85.0785ZM181.26 73.2551C186.141 74.0589 190.647 73.6908 194.758 76.5302C198.188 78.9039 202.127 80.7781 206.106 82.0626C209.931 83.2983 211.84 86.1903 214.377 88.9095C202.611 89.3677 189.185 82.9865 181.26 73.2551ZM225.988 76.3086C220.96 78.2091 215.97 80.2147 210.942 82.1077C210.258 82.3631 209.36 82.3969 208.658 82.2015C202.829 80.579 197.598 78.3142 192.616 74.3443C192.116 73.9462 191.612 73.2326 191.518 72.6054C190.857 68.0833 190.346 63.5387 189.7 59.0167C189.523 57.7998 189.395 56.9885 190.496 56.3237C195.622 53.2477 201.093 50.1717 206.159 46.9942C207.188 46.352 208.004 46.2355 209.082 46.8815C214.632 50.1979 219.672 52.8158 225.319 55.4374C226.417 55.9481 226.597 56.6205 226.725 57.8862C227.086 61.4655 227.559 71.5387 227.555 74.4157C227.552 75.4974 226.95 75.9405 225.988 76.3086ZM255.577 46.8853C255.393 52.1623 255.348 57.4392 255.137 62.7124C255.107 63.4861 253.728 67.2157 252.003 69.8185C249.332 73.8523 245.074 77.6908 244.646 77.6457C240.317 77.1875 232.403 76.2297 227.969 75.6964C227.815 69.2364 227.77 62.9941 227.679 56.7519C227.672 56.2486 228.104 55.6251 228.529 55.2533C233.451 50.9378 237.75 46.4534 241.906 41.8074C242.722 40.8985 243.462 40.9285 244.567 41.2628C247.945 42.2806 250.759 43.2947 253.871 44.3726C255.006 44.7632 255.626 45.5557 255.577 46.8853ZM244.21 12.1061C244.931 12.3577 245.566 12.9474 246.149 13.477C253.356 20.0122 256.419 26.2807 257.43 32.2638C257.621 33.3905 257.73 34.6525 257.523 35.798C257.02 38.5473 256.189 41.7773 255.539 44.6167C255.539 44.6167 254.743 44.4027 254.322 44.2524C251.165 43.1369 247.847 41.706 244.743 40.4515C243.774 40.0571 242.733 39.3135 242.199 38.4083C239.234 33.3605 236.022 28.4741 231.948 23.2122C231.234 22.2882 231.106 21.4206 231.52 20.2601C232.79 16.6619 233.65 12.9474 234.894 9.10142C238.096 10.123 241.301 11.0845 244.21 12.1061ZM223.824 2.3146C226.792 4.28267 229.817 6.17937 232.873 8.00846C234.349 8.88358 234.755 8.92865 234.331 10.1155C233.199 13.2742 231.862 16.9624 230.693 20.1136C230.445 20.7934 229.524 21.6122 228.795 21.6873C222.385 22.3446 217.049 23.2835 211.055 24.3952C210.439 24.5079 209.62 24.5267 209.161 24.2075C205.182 21.4769 201.262 18.9718 197.23 16.1023C198.801 12.6282 201.954 5.28923 203.566 1.97282C203.566 1.97282 209.691 0.132448 214.606 0.211321C218.841 0.286438 221.456 0.752166 223.824 2.3146ZM181.237 25.6647C185.976 22.7427 190.733 19.8507 195.554 17.0751C196.11 16.7596 196.888 16.2 197.459 16.5906C200.864 18.8741 204.573 21.969 207.887 24.3802C208.207 24.6093 208.466 24.9248 208.673 25.2065C208.939 25.5671 209.075 26.0178 209.015 26.461C208.158 32.767 207.726 38.2093 207.312 44.5341C207.275 45.1163 206.598 45.7848 206.042 46.1341C200.92 49.3454 195.78 52.8195 190.688 56.0683C189.437 56.8721 188.723 56.2899 187.776 55.2984C184.66 52.0421 181.406 48.9285 178.314 45.6534C177.724 45.0224 177.325 43.8656 177.389 43.0355C177.776 37.9351 178.122 33.2215 180.012 27.3736C180.211 26.7577 180.681 26.0103 181.237 25.6647ZM179.043 28.2863C177.998 33.2703 177.348 38.337 176.521 43.3623C176.427 43.9557 176.333 44.5792 176.078 45.0975C174.684 47.9031 173.241 50.6824 171.892 53.3191C169.205 46.1416 171.707 27.907 178.208 20.9774C178.843 23.4563 179.591 25.676 179.043 28.2863Z" fill="black"/>
<path d="M223.58 96.6165C223.058 97.7771 222.408 99.0353 221.705 100.098C219.034 104.132 214.776 107.967 214.348 107.922C210.019 107.467 202.105 106.506 197.667 105.972C197.573 102.002 197.52 98.1114 197.472 94.2541C197.257 94.179 197.047 94.1039 196.836 94.0212C197.066 98.1414 197.257 102.866 197.254 104.692C197.254 105.773 196.649 106.216 195.687 106.585C190.662 108.485 185.672 110.491 180.644 112.387C179.96 112.643 179.062 112.673 178.356 112.481C172.528 110.859 167.297 108.59 162.314 104.62C161.814 104.222 161.307 103.512 161.217 102.881C160.555 98.3555 160.041 93.8147 159.398 89.2889C159.225 88.072 159.094 87.2607 160.195 86.5959C164.869 83.7866 169.826 80.9847 174.504 78.1077C174.335 77.9049 174.17 77.7058 174.012 77.503C169.461 80.3988 164.911 83.4598 160.39 86.3405C159.139 87.1443 158.425 86.5584 157.478 85.5706C154.366 82.3105 151.108 79.2007 148.016 75.9218C147.426 75.2908 147.027 74.134 147.091 73.3002C147.482 68.2035 147.824 63.4862 149.718 57.6383C149.913 57.0261 150.379 56.2787 150.939 55.9332C154.855 53.5144 158.785 51.1219 162.754 48.8008C162.415 44.414 162.63 40.0159 163.404 35.6929C155.512 39.9595 148.82 46.6224 144.555 55.2796C133.601 77.503 142.747 104.395 164.978 115.343C186.691 126.032 212.848 117.57 224.268 96.4851C224.035 96.5414 223.81 96.5827 223.58 96.6165ZM145.78 75.381C144.386 78.1903 142.939 80.9697 141.594 83.6025C138.899 76.4251 141.406 58.1904 147.91 51.2609C148.546 53.736 149.293 55.9594 148.748 58.5698C147.7 63.55 147.054 68.6204 146.227 73.6458C146.126 74.2429 146.035 74.8626 145.78 75.381ZM150.958 103.535C155.839 104.339 160.341 103.974 164.452 106.814C167.883 109.184 171.825 111.062 175.801 112.342C179.63 113.578 181.539 116.474 184.071 119.185C172.31 119.647 158.887 113.266 150.958 103.535Z" fill="url(#paint0_linear)"/>
<path d="M194.066 126.123C193.544 127.283 192.894 128.542 192.191 129.605C189.52 133.638 185.262 137.473 184.834 137.428C180.505 136.974 172.591 136.012 168.153 135.479C168.059 131.509 168.006 127.618 167.958 123.76C167.743 123.685 167.533 123.61 167.323 123.528C167.552 127.648 167.743 132.373 167.74 134.198C167.74 135.28 167.135 135.723 166.173 136.091C161.149 137.991 156.158 139.997 151.13 141.894C150.446 142.149 149.548 142.179 148.842 141.988C143.014 140.365 137.783 138.097 132.8 134.127C132.3 133.728 131.793 133.019 131.703 132.388C131.041 127.862 130.527 123.321 129.884 118.795C129.711 117.578 129.58 116.767 130.681 116.102C135.355 113.293 140.312 110.491 144.99 107.614C144.821 107.411 144.656 107.212 144.498 107.009C139.947 109.905 135.397 112.966 130.876 115.847C129.625 116.651 128.911 116.065 127.964 115.077C124.852 111.817 121.594 108.707 118.502 105.428C117.912 104.797 117.513 103.64 117.577 102.807C117.968 97.7099 118.31 92.9925 120.204 87.1447C120.399 86.5325 120.865 85.785 121.425 85.4395C125.341 83.0207 129.271 80.6283 133.24 78.3071C132.901 73.9203 133.116 69.5222 133.89 65.1992C125.998 69.4659 119.306 76.1287 115.041 84.786C104.087 107.009 113.233 133.901 135.464 144.85C157.177 155.539 183.334 147.077 194.754 125.991C194.521 126.044 194.292 126.085 194.066 126.123ZM116.266 104.887C114.872 107.697 113.425 110.476 112.08 113.109C109.385 105.931 111.892 87.6968 118.396 80.7672C119.032 83.2423 119.779 85.4658 119.234 88.0761C118.186 93.0564 117.54 98.1268 116.713 103.152C116.608 103.746 116.521 104.365 116.266 104.887ZM121.444 133.037C126.325 133.841 130.827 133.477 134.938 136.316C138.369 138.686 142.311 140.564 146.287 141.845C150.116 143.081 152.025 145.976 154.557 148.688C142.796 149.15 129.373 142.773 121.444 133.037Z" fill="url(#paint1_linear)"/>
<path d="M122.142 155.05C117.396 161.131 112.33 166.892 107.163 172.556C101.985 178.205 96.683 183.729 91.2681 189.142C85.8569 194.558 80.3293 199.857 74.6776 205.033C69.0147 210.197 63.2503 215.26 57.1589 219.996C61.8975 213.908 66.9667 208.15 72.1298 202.486C77.308 196.837 82.6102 191.313 88.0289 185.904C93.4476 180.492 98.9715 175.192 104.623 170.017C110.294 164.856 116.058 159.793 122.142 155.05Z" fill="#408647"/>
<path d="M97.5176 122.536C90.0622 131.328 82.2874 139.798 74.3961 148.158C66.5274 156.537 58.497 164.755 50.3765 172.883C42.2485 181.003 34.0265 189.029 25.643 196.894C17.2782 204.778 8.80067 212.548 0 219.996C7.45164 211.2 15.2264 202.727 23.114 194.366C30.9827 185.987 39.0131 177.769 47.1373 169.645C55.2691 161.529 63.4911 153.503 71.8747 145.638C80.247 137.758 88.7207 129.987 97.5176 122.536Z" fill="#408647"/>
<path d="M137.903 162.366C133.769 167.838 129.313 172.988 124.758 178.043C120.193 183.083 115.495 187.996 110.693 192.8C105.891 197.604 100.975 202.298 95.9325 206.862C90.8784 211.414 85.7265 215.868 80.2439 220C84.3737 214.524 88.8304 209.371 93.3848 204.319C97.9542 199.279 102.648 194.366 107.454 189.566C112.26 184.766 117.175 180.071 122.218 175.508C127.272 170.952 132.428 166.498 137.903 162.366Z" fill="#408647"/>
<defs>
<linearGradient id="paint0_linear" x1="153.067" y1="106.849" x2="193.821" y2="66.0746" gradientUnits="userSpaceOnUse">
<stop offset="2.23767e-07" stop-color="#58595B"/>
<stop offset="1" stop-color="#636466" stop-opacity="0"/>
</linearGradient>
<linearGradient id="paint1_linear" x1="123.553" y1="136.353" x2="164.306" y2="95.5782" gradientUnits="userSpaceOnUse">
<stop offset="2.23767e-07" stop-color="#939598"/>
<stop offset="1" stop-color="#939598" stop-opacity="0"/>
</linearGradient>
</defs>
</svg>
