<svg width="40" height="40" viewBox="0 0 40 40" fill="none" xmlns="http://www.w3.org/2000/svg">
<path d="M0 20C0 31.0457 8.95431 40 20 40C31.0457 40 40 31.0457 40 20C40 8.95431 31.0457 0 20 0C8.95431 0 0 8.95431 0 20Z" fill="#F00073"/>
<path d="M19.9998 11.5C22.7498 11.5 23.1248 11.5 24.2498 11.5C25.2498 11.5 25.7498 11.75 26.1248 11.875C26.6248 12.125 26.9998 12.25 27.3748 12.625C27.7498 13 27.9998 13.375 28.1248 13.875C28.2498 14.25 28.3748 14.75 28.4998 15.75C28.4998 16.875 28.4998 17.125 28.4998 20C28.4998 22.875 28.4998 23.125 28.4998 24.25C28.4998 25.25 28.2498 25.75 28.1248 26.125C27.8748 26.625 27.7498 27 27.3748 27.375C26.9998 27.75 26.6248 28 26.1248 28.125C25.7498 28.25 25.2498 28.375 24.2498 28.5C23.1248 28.5 22.8748 28.5 19.9998 28.5C17.1248 28.5 16.8748 28.5 15.7498 28.5C14.7498 28.5 14.2498 28.25 13.8748 28.125C13.3748 27.875 12.9998 27.75 12.6248 27.375C12.2498 27 11.9998 26.625 11.8748 26.125C11.7498 25.75 11.6248 25.25 11.4998 24.25C11.4998 23.125 11.4998 22.875 11.4998 20C11.4998 17.125 11.4998 16.875 11.4998 15.75C11.4998 14.75 11.7498 14.25 11.8748 13.875C12.1248 13.375 12.2498 13 12.6248 12.625C12.9998 12.25 13.3748 12 13.8748 11.875C14.2498 11.75 14.7498 11.625 15.7498 11.5C16.8748 11.5 17.2498 11.5 19.9998 11.5ZM19.9998 9.625C17.1248 9.625 16.8748 9.625 15.7498 9.625C14.6248 9.625 13.8748 9.875 13.2498 10.125C12.6248 10.375 11.9998 10.75 11.3748 11.375C10.7498 12 10.4998 12.5 10.1248 13.25C9.87476 13.875 9.74976 14.625 9.62476 15.75C9.62476 16.875 9.62476 17.25 9.62476 20C9.62476 22.875 9.62476 23.125 9.62476 24.25C9.62476 25.375 9.87476 26.125 10.1248 26.75C10.3748 27.375 10.7498 28 11.3748 28.625C11.9998 29.25 12.4998 29.5 13.2498 29.875C13.8748 30.125 14.6248 30.25 15.7498 30.375C16.8748 30.375 17.2498 30.375 19.9998 30.375C22.7498 30.375 23.1248 30.375 24.2498 30.375C25.3748 30.375 26.1248 30.125 26.7498 29.875C27.3748 29.625 27.9998 29.25 28.6248 28.625C29.2498 28 29.4998 27.5 29.8748 26.75C30.1248 26.125 30.2498 25.375 30.3748 24.25C30.3748 23.125 30.3748 22.75 30.3748 20C30.3748 17.25 30.3748 16.875 30.3748 15.75C30.3748 14.625 30.1248 13.875 29.8748 13.25C29.6248 12.625 29.2498 12 28.6248 11.375C27.9998 10.75 27.4998 10.5 26.7498 10.125C26.1248 9.875 25.3748 9.75 24.2498 9.625C23.1248 9.625 22.8748 9.625 19.9998 9.625Z" fill="white"/>
<path d="M19.9998 14.625C16.9998 14.625 14.6248 17 14.6248 20C14.6248 23 16.9998 25.375 19.9998 25.375C22.9998 25.375 25.3748 23 25.3748 20C25.3748 17 22.9998 14.625 19.9998 14.625ZM19.9998 23.5C18.1248 23.5 16.4998 22 16.4998 20C16.4998 18.125 17.9998 16.5 19.9998 16.5C21.8748 16.5 23.4998 18 23.4998 20C23.4998 21.875 21.8748 23.5 19.9998 23.5Z" fill="white"/>
<path d="M25.4998 15.75C26.1901 15.75 26.7498 15.1904 26.7498 14.5C26.7498 13.8096 26.1901 13.25 25.4998 13.25C24.8094 13.25 24.2498 13.8096 24.2498 14.5C24.2498 15.1904 24.8094 15.75 25.4998 15.75Z" fill="white"/>
</svg>
