<svg width="80" height="80" viewBox="0 0 80 80" fill="none" xmlns="http://www.w3.org/2000/svg">
<g clip-path="url(#clip0)">
<g filter="url(#filter0_d)">
<path d="M40.0002 5C33.1071 5.0086 26.4986 7.90868 21.6245 13.0641C16.7503 18.2195 14.0084 25.2092 14.0003 32.5C13.992 38.4581 15.832 44.2545 19.2381 49C19.2381 49 19.9472 49.9875 20.063 50.13L40.0002 75L59.9469 50.1175C60.0509 49.985 60.7624 49 60.7624 49L60.7648 48.9925C64.1691 44.249 66.0083 38.4553 66.0002 32.5C65.9921 25.2092 63.2502 18.2195 58.376 13.0641C53.5018 7.90868 46.8934 5.0086 40.0002 5ZM48.5093 45L40.0002 39.2725L31.4912 45L32.9093 34.815L25.8184 27.9325L35.7457 26.665L40.0002 17.5L44.5195 26.6675L54.182 27.9325L47.0911 34.815L48.5093 45Z" fill="#408647"/>
</g>
</g>
<defs>
<filter id="filter0_d" x="6.00024" y="0" width="68" height="86" filterUnits="userSpaceOnUse" color-interpolation-filters="sRGB">
<feFlood flood-opacity="0" result="BackgroundImageFix"/>
<feColorMatrix in="SourceAlpha" type="matrix" values="0 0 0 0 0 0 0 0 0 0 0 0 0 0 0 0 0 0 127 0" result="hardAlpha"/>
<feOffset dy="3"/>
<feGaussianBlur stdDeviation="4"/>
<feComposite in2="hardAlpha" operator="out"/>
<feColorMatrix type="matrix" values="0 0 0 0 0.211765 0 0 0 0 0.235294 0 0 0 0 0.192157 0 0 0 0.08 0"/>
<feBlend mode="normal" in2="BackgroundImageFix" result="effect1_dropShadow"/>
<feBlend mode="normal" in="SourceGraphic" in2="effect1_dropShadow" result="shape"/>
</filter>
<clipPath id="clip0">
<rect width="80" height="80" fill="white"/>
</clipPath>
</defs>
</svg>
