<svg width="520" height="650" viewBox="0 0 520 650" fill="none" xmlns="http://www.w3.org/2000/svg">
<path d="M247.649 93.701C253.304 88.0348 265.151 75.2708 267.294 69.5449C270.419 61.9401 272.651 53.4408 271.759 41.3628C269.526 30.1793 274.437 10.9438 287.833 4.23393C290.512 2.89208 314.621 -8.29147 337.393 12.286C340.071 14.706 346.768 20.338 348.555 20.7853C349 24.364 346.471 30.1793 344.983 31.9687C345.876 36.5911 347.394 46.9097 346.322 51.2041C344.983 57.0194 344.089 60.1509 344.983 62.8348C342.303 65.9662 340.517 68.2029 338.732 70.4395C336.947 72.6761 335.606 77.597 335.16 78.9389C334.93 79.6334 334.268 86.9909 334.267 89.2276C334.266 91.4644 329.356 91.0169 328.016 92.359C326.677 93.701 328.016 95.043 323.998 97.2796C322.212 100.411 319.98 99.9637 318.194 107.121C313.729 112.489 310.157 112.042 308.818 112.936C307.478 113.831 302.567 115.62 299.888 115.173C301.674 118.752 299.888 117.857 304.353 120.541C308.818 123.225 316.408 125.909 317.301 132.619C320.426 140.224 319.533 148.276 322.659 150.065C332.481 150.065 342.75 150.513 354.806 146.487C365.968 144.697 365.521 146.487 372.665 143.355C380.255 139.329 394.542 133.514 403.026 131.724C412.402 130.383 423.119 125.462 425.35 127.698C428.029 130.383 421.331 133.067 421.331 133.067C421.331 133.067 423.564 133.067 426.689 133.961C429.814 135.065 429.772 138.748 424.457 138.435C418.206 138.435 414.634 137.54 409.732 140.224C408.383 141.119 395.156 148.491 398.114 150.96C398.542 151.317 402.579 150.96 411.062 149.618C416.42 149.171 419.419 151.407 418.653 154.091C418.015 156.328 415.08 156.775 403.026 157.67C398.114 159.459 392.757 166.169 380.255 165.275L379.805 165.189C370.819 163.472 368.926 163.111 358.824 167.511C350.609 171.448 336.649 179.291 330.695 182.721C330.695 186.747 331.053 193.636 332.481 196.141C334.267 199.272 336.946 211.798 336.5 219.402C336.053 227.007 339.179 242.664 339.179 250.716C339.625 261.154 340.072 291.871 340.072 291.871L358.378 341.972C358.378 342.867 357.217 344.925 352.573 345.998C356.592 350.919 395.436 374.628 414.188 396.994C432.494 414.888 426.69 409.967 434.727 415.783C439.638 421.598 449.014 430.097 454.372 436.807C458.39 441.281 466.159 452.733 465.088 462.753C466.874 467.405 467.915 490.339 468.213 501.224C468.66 501.969 470.356 504.087 473.571 506.592C475.357 520.012 476.696 551.325 475.803 555.799C488.751 558.035 510.628 564.298 518.22 592.928C521.791 612.61 515.54 630.056 502.593 640.793C485.625 652.383 455.264 656.449 434.28 632.293C423.118 615.742 419.546 597.848 433.387 574.587C430.262 559.825 422.672 536.563 419.993 531.195C418.207 524.485 418.207 477.962 415.081 472.147C407.044 466.332 399.008 458.28 389.632 459.622C381.148 464.99 370.879 475.278 358.378 469.016C342.304 462.753 310.157 443.07 300.334 431.439L286.94 437.255C286.493 440.684 285.422 447.812 284.707 448.885C283.993 449.959 283.814 448.885 283.368 448.885C276.968 464.095 262.829 495.677 257.472 500.329C250.774 506.145 223.092 514.197 206.126 496.303C195.41 489.593 190.499 485.567 176.211 482.883C164.602 477.962 125.758 455.595 118.614 447.543C108.792 444.859 101.201 441.728 90.0393 443.07C77.5377 441.281 58.7853 435.913 19.4945 440.833L19.2363 440.843C6.85808 441.286 -2.80521 441.632 0.742058 427.861C2.528 423.208 6.54556 419.809 6.09907 419.809C5.65259 419.809 5.2061 415.783 8.77799 417.125C10.9211 414.977 13.8382 412.651 15.0288 411.756C14.7311 409.967 15.0288 406.836 19.0472 408.625L29.7628 401.915C29.7628 399.678 32.4418 398.336 34.2277 400.126L45.3899 398.784C45.3899 397.442 48.5153 395.652 49.8547 398.336C57.5938 397.889 73.5185 396.994 75.3044 396.994C76.6439 396.994 79.3228 395.205 79.7693 394.758C79.7693 393.863 83.3412 388.048 88.699 392.521C89.9196 392.346 92.2709 391.179 93.6104 390.284C93.6104 389.39 98.0752 386.706 100.308 391.179C103.433 391.328 110.309 393.058 112.809 398.784C114.595 401.915 115.935 408.178 116.381 409.52C117.721 411.756 123.078 414.888 133.794 417.125C142.724 418.914 140.938 419.809 142.724 419.809C144.956 419.809 171.745 426.071 177.55 427.861C184.247 427.861 202.107 425.624 219.966 443.07L221.752 440.833C220.561 439.193 218.537 435.465 219.966 433.676C221.752 431.439 226.217 415.783 226.663 407.283C227.11 398.784 222.198 392.074 223.538 379.548C224.609 369.528 223.984 361.058 223.538 358.076C221.008 359.567 216.037 361.655 216.394 358.076C212.376 358.076 211.036 358.524 210.143 355.84C205.678 356.734 202.553 355.84 202.553 349.129C199.874 346.893 200.321 345.103 199.874 342.419C198.535 338.393 193.623 329.447 196.302 324.973C196.898 323.78 199.338 320.232 204.339 315.579C207.464 312.448 210.143 312.895 212.376 299.028C213.12 284.415 214.965 254.473 216.394 251.61C217.108 246.958 220.859 238.339 222.645 234.612C223.091 232.375 223.091 229.691 222.645 226.56C218.627 216.271 217.734 212.692 217.287 199.719C216.841 189.878 216.394 187.641 215.501 181.826C213.12 177.055 208.893 164.469 211.036 152.302C213.715 137.093 227.556 115.62 229.342 113.831C231.128 112.042 239.611 102.2 238.718 92.8064C238.718 92.359 246.309 93.2536 247.649 93.701Z" fill="#F3F3F3"/>
</svg>
