<svg width="213" height="180" viewBox="0 0 213 180" fill="none" xmlns="http://www.w3.org/2000/svg">
<path d="M159.69 69.6098C177.876 78.5675 199.875 71.0879 208.833 52.9051C214.699 41.0004 213.516 27.4547 206.891 17.0066C206.657 16.644 206.421 16.2876 206.178 15.9342C206.104 15.8297 206.04 15.7252 205.966 15.6207C203.271 11.7918 199.875 8.51602 195.972 5.96545C195.917 5.93165 195.859 5.8917 195.803 5.85482C195.432 5.61513 195.054 5.38466 194.676 5.16033C194.504 5.05892 194.331 4.95444 194.159 4.85303C193.864 4.68402 193.563 4.52423 193.262 4.36136C192.998 4.21693 192.73 4.07557 192.46 3.93729C192.214 3.8113 191.965 3.69453 191.716 3.57468C191.397 3.41796 191.077 3.27353 190.758 3.1291C190.524 3.02462 190.287 2.92321 190.048 2.8218C189.728 2.68966 189.406 2.5606 189.083 2.43461C188.825 2.33627 188.567 2.23794 188.305 2.14268C188.013 2.03819 187.722 1.93986 187.43 1.8446C187.125 1.74319 186.818 1.64178 186.511 1.55267C186.271 1.47891 186.031 1.41131 185.792 1.3437C185.42 1.23922 185.048 1.14089 184.673 1.0487C184.504 1.00568 184.332 0.965728 184.16 0.928852C183.711 0.827444 183.26 0.726035 182.802 0.639992C182.706 0.618482 182.614 0.603117 182.519 0.587752C181.978 0.49249 181.44 0.403372 180.896 0.326548C180.884 0.326548 180.869 0.32655 180.857 0.323477C178.447 0.000814747 175.967 -0.0852298 173.448 0.0868566C170.958 0.25587 168.546 0.670719 166.229 1.29453C166.162 1.31604 166.097 1.32834 166.036 1.34678C165.645 1.45433 165.261 1.57725 164.877 1.6971C164.647 1.76777 164.419 1.83538 164.192 1.9122C164.023 1.97059 163.854 2.03512 163.688 2.09044C154.973 5.16955 147.398 11.5183 142.991 20.4668C134.031 38.6496 141.507 60.652 159.69 69.6098ZM148.228 59.936C152.219 60.5937 155.904 60.2925 159.266 62.6157C162.071 64.5578 165.292 66.0912 168.546 67.1422C171.674 68.1532 173.236 70.5194 175.31 72.7442C165.688 73.1191 154.709 67.8981 148.228 59.936ZM184.805 62.4344C180.694 63.9893 176.613 65.6303 172.501 67.179C171.942 67.388 171.207 67.4157 170.633 67.2559C165.867 65.9283 161.589 64.0753 157.514 60.8272C157.105 60.5015 156.694 59.9176 156.617 59.4044C156.076 55.7046 155.658 51.9863 155.13 48.2864C154.985 47.2908 154.881 46.627 155.781 46.0831C159.973 43.5663 164.447 41.0496 168.589 38.4498C169.431 37.9244 170.098 37.8291 170.98 38.3576C175.519 41.0711 179.64 43.2129 184.258 45.3579C185.156 45.7758 185.303 46.3259 185.408 47.3615C185.703 50.29 186.09 58.5317 186.087 60.8856C186.084 61.7706 185.592 62.1332 184.805 62.4344ZM209.002 38.3607C208.851 42.6782 208.814 46.9958 208.642 51.3102C208.618 51.9432 207.49 54.9947 206.079 57.1243C203.895 60.4246 200.413 63.5652 200.063 63.5283C196.523 63.1534 190.051 62.3698 186.425 61.9335C186.299 56.648 186.262 51.5407 186.188 46.4334C186.182 46.0216 186.535 45.5115 186.883 45.2073C190.908 41.6764 194.424 38.0073 197.822 34.2061C198.489 33.4624 199.095 33.487 199.998 33.7605C202.761 34.5933 205.062 35.423 207.607 36.3049C208.535 36.6245 209.042 37.2729 209.002 38.3607ZM199.706 9.905C200.296 10.1109 200.815 10.5933 201.292 11.0266C207.186 16.3736 209.69 21.5024 210.517 26.3976C210.674 27.3195 210.763 28.352 210.594 29.2893C210.182 31.5387 209.503 34.1815 208.971 36.5046C208.971 36.5046 208.32 36.3295 207.975 36.2066C205.394 35.2939 202.681 34.1231 200.142 33.0967C199.35 32.774 198.498 32.1656 198.062 31.425C195.638 27.2949 193.01 23.297 189.679 18.9918C189.095 18.2358 188.991 17.526 189.329 16.5764C190.367 13.6325 191.071 10.5933 192.088 7.44662C194.706 8.28247 197.328 9.06915 199.706 9.905ZM183.035 1.89377C185.463 3.504 187.937 5.05585 190.435 6.55239C191.643 7.26839 191.975 7.30526 191.627 8.27632C190.702 10.8607 189.608 13.8784 188.653 16.4566C188.45 17.0128 187.697 17.6827 187.101 17.7442C181.858 18.2819 177.495 19.0502 172.593 19.9598C172.089 20.0519 171.419 20.0673 171.044 19.8061C167.79 17.5721 164.585 15.5224 161.288 13.1746C162.572 10.3321 165.151 4.32756 166.469 1.61412C166.469 1.61412 171.478 0.108367 175.497 0.172899C178.96 0.234359 181.099 0.615409 183.035 1.89377ZM148.209 20.9984C152.084 18.6077 155.975 16.2415 159.917 13.9705C160.372 13.7124 161.008 13.2545 161.475 13.5741C164.259 15.4425 167.292 17.9746 170.003 19.9475C170.264 20.1349 170.476 20.393 170.645 20.6235C170.863 20.9185 170.974 21.2873 170.925 21.6499C170.224 26.8094 169.871 31.2621 169.533 36.437C169.502 36.9133 168.949 37.4603 168.494 37.7461C164.305 40.3735 160.102 43.216 155.938 45.8741C154.914 46.5317 154.331 46.0554 153.556 45.2442C151.009 42.5799 148.348 40.0324 145.818 37.3528C145.336 36.8365 145.01 35.89 145.063 35.2109C145.379 31.0378 145.662 27.1812 147.207 22.3966C147.37 21.8927 147.754 21.2811 148.209 20.9984ZM146.415 23.1434C145.56 27.2212 145.029 31.3666 144.353 35.4783C144.276 35.9638 144.199 36.4739 143.99 36.898C142.85 39.1935 141.67 41.4675 140.567 43.6247C138.37 37.7523 140.416 22.833 145.732 17.1634C146.252 19.1915 146.863 21.0076 146.415 23.1434Z" fill="black"/>
<path d="M182.834 79.0502C182.407 79.9997 181.876 81.0292 181.301 81.8988C179.116 85.1992 175.634 88.3367 175.284 88.2998C171.744 87.928 165.272 87.1413 161.643 86.705C161.566 83.4568 161.523 80.2732 161.483 77.1173C161.308 77.0558 161.136 76.9944 160.964 76.9268C161.151 80.2978 161.308 84.1636 161.305 85.6571C161.305 86.5421 160.81 86.9047 160.024 87.2058C155.915 88.7608 151.834 90.4017 147.723 91.9536C147.163 92.1625 146.429 92.1871 145.851 92.0304C141.085 90.7029 136.807 88.8468 132.733 85.5987C132.324 85.2729 131.909 84.6922 131.835 84.1759C131.294 80.473 130.873 76.7577 130.348 73.0548C130.207 72.0592 130.099 71.3954 130.999 70.8515C134.822 68.5529 138.876 66.2605 142.701 63.9066C142.563 63.7406 142.428 63.5778 142.299 63.4118C138.577 65.7811 134.856 68.2855 131.159 70.6425C130.136 71.3001 129.552 70.8208 128.778 70.0126C126.233 67.3452 123.569 64.8008 121.04 62.1181C120.558 61.6018 120.232 60.6554 120.284 59.9732C120.604 55.8031 120.883 51.9435 122.432 47.1589C122.592 46.658 122.973 46.0465 123.431 45.7637C126.633 43.7847 129.847 41.8273 133.092 39.9282C132.816 36.3389 132.991 32.7405 133.624 29.2035C127.171 32.6944 121.698 38.1458 118.21 45.229C109.252 63.4118 116.732 85.4143 134.911 94.372C152.667 103.118 174.058 96.1943 183.397 78.9426C183.206 78.9887 183.022 79.0225 182.834 79.0502ZM119.212 61.6756C118.071 63.9742 116.888 66.2482 115.788 68.4023C113.585 62.5299 115.635 47.6106 120.954 41.941C121.473 43.966 122.085 45.7852 121.639 47.921C120.782 51.9957 120.253 56.1442 119.577 60.2559C119.494 60.7445 119.421 61.2515 119.212 61.6756ZM123.446 84.7106C127.438 85.3682 131.119 85.0701 134.481 87.3933C137.287 89.3323 140.51 90.8688 143.762 91.9167C146.893 92.9277 148.454 95.297 150.525 97.5157C140.907 97.8936 129.93 92.6727 123.446 84.7106Z" fill="url(#paint0_linear)"/>
<path d="M158.705 103.191C158.278 104.141 157.746 105.17 157.171 106.04C154.986 109.34 151.505 112.478 151.154 112.441C147.614 112.069 141.143 111.282 137.514 110.846C137.437 107.598 137.394 104.414 137.354 101.258C137.179 101.197 137.006 101.135 136.834 101.068C137.022 104.439 137.179 108.305 137.175 109.798C137.175 110.683 136.681 111.046 135.894 111.347C131.786 112.902 127.705 114.543 123.593 116.095C123.034 116.304 122.299 116.328 121.722 116.171C116.955 114.844 112.678 112.988 108.603 109.74C108.194 109.414 107.779 108.833 107.706 108.317C107.165 104.614 106.744 100.899 106.218 97.1958C106.077 96.2001 105.969 95.5364 106.87 94.9925C110.693 92.6939 114.746 90.4015 118.572 88.0476C118.433 87.8816 118.298 87.7187 118.169 87.5528C114.448 89.9221 110.726 92.4265 107.03 94.7835C106.006 95.4411 105.422 94.9617 104.648 94.1535C102.104 91.4862 99.4394 88.9418 96.9103 86.2591C96.4279 85.7428 96.1022 84.7963 96.1544 84.1141C96.474 79.9441 96.7536 76.0845 98.3024 71.2999C98.4622 70.799 98.8432 70.1874 99.3011 69.9047C102.503 67.9257 105.717 65.9683 108.963 64.0692C108.686 60.4799 108.861 56.8815 109.494 53.3445C103.041 56.8354 97.568 62.2868 94.0801 69.37C85.1224 87.5528 92.602 109.555 110.782 118.513C128.537 127.259 149.928 120.335 159.267 103.084C159.077 103.127 158.889 103.16 158.705 103.191ZM95.0819 85.8166C93.9419 88.1152 92.7588 90.3892 91.6586 92.5433C89.4553 86.6709 91.505 71.7516 96.8243 66.0819C97.3436 68.107 97.9552 69.9262 97.5096 72.0619C96.6522 76.1367 96.1237 80.2852 95.4476 84.3969C95.3616 84.8824 95.2909 85.3894 95.0819 85.8166ZM99.3165 108.849C103.308 109.506 106.99 109.208 110.352 111.531C113.157 113.47 116.381 115.007 119.632 116.055C122.763 117.066 124.324 119.435 126.396 121.654C116.777 122.032 105.8 116.814 99.3165 108.849Z" fill="url(#paint1_linear)"/>
<path d="M99.8801 126.859C95.999 131.835 91.8566 136.548 87.6313 141.182C83.3967 145.804 79.0608 150.325 74.6326 154.753C70.2075 159.184 65.6872 163.52 61.0654 167.754C56.4345 171.98 51.7205 176.122 46.7393 179.997C50.6143 175.016 54.7597 170.305 58.982 165.671C63.2165 161.049 67.5525 156.529 71.9837 152.104C76.4149 147.676 80.9322 143.34 85.554 139.105C90.1911 134.883 94.905 130.741 99.8801 126.859Z" fill="#408647"/>
<path d="M79.7467 100.256C73.6499 107.45 67.2919 114.38 60.8387 121.22C54.4039 128.076 47.8369 134.8 41.1963 141.45C34.5494 148.093 27.8258 154.66 20.97 161.095C14.1295 167.545 7.1969 173.903 0 179.997C6.0937 172.8 12.4517 165.867 18.9018 159.027C25.3367 152.171 31.9036 145.447 38.5474 138.801C45.1973 132.16 51.9209 125.593 58.7767 119.158C65.6233 112.711 72.5529 106.353 79.7467 100.256Z" fill="#408647"/>
<path d="M112.77 132.845C109.39 137.323 105.745 141.536 102.021 145.672C98.2869 149.796 94.4457 153.815 90.5185 157.746C86.5912 161.676 82.5717 165.517 78.4478 169.251C74.3147 172.975 70.1016 176.62 65.6182 180C68.9954 175.52 72.6399 171.303 76.3643 167.17C80.1011 163.046 83.9392 159.027 87.8696 155.1C91.7999 151.172 95.8193 147.331 99.9433 143.598C104.076 139.87 108.293 136.225 112.77 132.845Z" fill="#408647"/>
<defs>
<linearGradient id="paint0_linear" x1="125.171" y1="87.4224" x2="158.515" y2="54.0782" gradientUnits="userSpaceOnUse">
<stop offset="2.23767e-07" stop-color="#58595B"/>
<stop offset="1" stop-color="#636466" stop-opacity="0"/>
</linearGradient>
<linearGradient id="paint1_linear" x1="101.041" y1="111.561" x2="134.385" y2="78.217" gradientUnits="userSpaceOnUse">
<stop offset="2.23767e-07" stop-color="#939598"/>
<stop offset="1" stop-color="#939598" stop-opacity="0"/>
</linearGradient>
</defs>
</svg>
